<svg width="24" height="24" viewBox="0 0 24 24" fill="none" xmlns="http://www.w3.org/2000/svg">
<circle cx="12" cy="12" r="12" fill="#2695FB"/>
<path d="M13.416 7.24719L13.9722 6.69107C14.8936 5.76964 16.3875 5.76964 17.3089 6.69107C18.2304 7.61249 18.2304 9.10641 17.3089 10.0278L16.7528 10.584M13.416 7.24719C13.416 7.24719 13.4856 8.42897 14.5283 9.47171C15.571 10.5144 16.7528 10.584 16.7528 10.584M13.416 7.24719L8.30329 12.3599C7.957 12.7062 7.78385 12.8794 7.63494 13.0703C7.45928 13.2955 7.30868 13.5392 7.18581 13.797C7.08164 14.0156 7.00421 14.2479 6.84934 14.7125L6.3535 16.2M16.7528 10.584L11.6401 15.6967C11.2938 16.043 11.1206 16.2162 10.9297 16.3651C10.7045 16.5407 10.4608 16.6913 10.203 16.8142C9.98442 16.9184 9.75211 16.9958 9.28751 17.1507L7.8 17.6465M7.8 17.6465L6.8375 17.9673C6.60887 18.0435 6.35679 17.984 6.18638 17.8136C6.01596 17.6432 5.95646 17.3911 6.03267 17.1625L6.3535 16.2M7.8 17.6465L6.3535 16.2" stroke="white" stroke-width="1.2"/>
</svg>
