<svg width="100" height="100" viewBox="0 0 100 100" fill="none" xmlns="http://www.w3.org/2000/svg">
<path d="M30.7906 93.2503C30.1908 94.6008 30.7971 96.1891 32.1778 96.7158C38.1154 98.9811 44.4386 100.097 50.8092 99.9934C58.0727 99.8759 65.2235 98.177 71.7637 95.0149C78.3039 91.8528 84.0766 87.3036 88.68 81.6838C93.2833 76.0639 96.6068 69.5085 98.4191 62.4737C100.231 55.4389 100.489 48.0936 99.174 40.9491C97.859 33.8046 95.0029 27.0324 90.8046 21.1039C86.6063 15.1754 81.1665 10.2329 74.8639 6.62043C69.3361 3.45207 63.261 1.37353 56.968 0.487905C55.5046 0.281972 54.2064 1.37958 54.079 2.85183C53.9516 4.32409 55.0437 5.61262 56.5057 5.82793C62.0241 6.64068 67.3496 8.48163 72.2027 11.2633C77.8308 14.4891 82.6884 18.9026 86.4374 24.1966C90.1863 29.4906 92.7367 35.538 93.911 41.9178C95.0852 48.2976 94.8552 54.8567 93.2369 61.1386C91.6185 67.4206 88.6508 73.2744 84.5401 78.2927C80.4294 83.3111 75.2746 87.3734 69.4344 90.197C63.5941 93.0206 57.2087 94.5377 50.7226 94.6427C45.1295 94.7333 39.5774 93.7719 34.3532 91.8171C32.9692 91.2993 31.3904 91.8997 30.7906 93.2503Z" fill="#51AAFC"/>
<path d="M71.5412 75.5038C72.4736 76.6077 74.1319 76.7533 75.1652 75.7432C79.4972 71.5086 82.7012 66.2381 84.4614 60.4121C86.4745 53.7493 86.5129 46.6457 84.5721 39.9615C82.6312 33.2772 78.7942 27.2989 73.5257 22.7504C68.919 18.7732 63.3905 16.0383 57.4642 14.7823C56.0506 14.4827 54.7282 15.4938 54.532 16.9254C54.3358 18.357 55.3411 19.6655 56.7508 19.9825C61.6751 21.0899 66.2655 23.3954 70.1062 26.7112C74.6089 30.5986 77.8881 35.7079 79.5469 41.4206C81.2056 47.1333 81.1728 53.2043 79.4523 58.8987C77.9848 63.7558 75.343 68.1613 71.7777 71.7338C70.7569 72.7566 70.6088 74.3999 71.5412 75.5038Z" fill="#FFA573"/>
<path d="M69.4043 57.0909C70.6185 57.5346 71.975 56.9118 72.293 55.6588C72.8851 53.3262 73.1086 50.9104 72.951 48.4994C72.7423 45.308 71.8704 42.1953 70.3909 39.3599C68.9114 36.5246 66.8569 34.0289 64.3585 32.0324C62.471 30.524 60.3614 29.3256 58.1095 28.4771C56.8998 28.0213 55.613 28.7777 55.2824 30.0274C54.9519 31.2772 55.7051 32.5444 56.9025 33.0315C58.5298 33.6935 60.0573 34.5876 61.436 35.6894C63.4259 37.2796 65.0623 39.2673 66.2406 41.5256C67.419 43.7838 68.1135 46.263 68.2797 48.8048C68.3948 50.5659 68.2546 52.3303 67.8668 54.0438C67.5814 55.3046 68.1901 56.6472 69.4043 57.0909Z" fill="#FAB835"/>
</svg>
