<svg width="46" height="46" viewBox="0 0 46 46" fill="none" xmlns="http://www.w3.org/2000/svg">
<path fill-rule="evenodd" clip-rule="evenodd" d="M17.8593 12.25C17.889 12.25 17.9192 12.25 17.9497 12.25L17.9867 12.25C18.3382 12.25 18.5643 12.2499 18.7854 12.2706C19.7367 12.3596 20.639 12.7333 21.3746 13.3431C21.5455 13.4848 21.7055 13.6447 21.9539 13.8933L22.5303 14.4697C23.376 15.3154 23.7012 15.6311 24.0768 15.84C24.2948 15.9613 24.526 16.0571 24.7659 16.1255C25.1793 16.2433 25.6324 16.25 26.8284 16.25L27.253 16.25C28.5259 16.25 29.5521 16.25 30.364 16.352C31.2054 16.4578 31.9204 16.6835 32.5077 17.2118C32.6061 17.3003 32.6997 17.3939 32.7882 17.4923C33.3164 18.0796 33.5422 18.7946 33.648 19.636C33.75 20.4479 33.75 21.474 33.75 22.747V25.0564C33.75 26.8942 33.75 28.3498 33.5969 29.489C33.4392 30.6614 33.1071 31.6104 32.3588 32.3587C31.6104 33.1071 30.6614 33.4392 29.489 33.5969C28.3498 33.75 26.8942 33.75 25.0564 33.75H20.9436C19.1058 33.75 17.6502 33.75 16.511 33.5969C15.3386 33.4392 14.3896 33.1071 13.6412 32.3587C12.8929 31.6104 12.5608 30.6614 12.4031 29.489C12.25 28.3498 12.25 26.8942 12.25 25.0564L12.25 17.9497C12.25 17.9192 12.25 17.889 12.25 17.8593C12.2499 17.0633 12.2498 16.5568 12.3324 16.1193C12.6949 14.1979 14.1979 12.6949 16.1193 12.3323C16.5568 12.2498 17.0634 12.2499 17.8593 12.25ZM17.9497 13.75C17.0331 13.75 16.6787 13.7533 16.3974 13.8063C15.0828 14.0544 14.0544 15.0827 13.8063 16.3974C13.7533 16.6787 13.75 17.0331 13.75 17.9497V25C13.75 26.9068 13.7516 28.2615 13.8898 29.2891C14.025 30.2952 14.2787 30.8749 14.7019 31.2981C15.1251 31.7213 15.7048 31.975 16.7108 32.1102C17.7385 32.2484 19.0932 32.25 21 32.25H25C26.9068 32.25 28.2615 32.2484 29.2892 32.1102C30.2952 31.975 30.8749 31.7213 31.2981 31.2981C31.7213 30.8749 31.975 30.2952 32.1102 29.2891C32.2484 28.2615 32.25 26.9068 32.25 25V22.7979C32.25 21.462 32.2486 20.5305 32.1597 19.8231C32.0731 19.1344 31.9141 18.7635 31.6729 18.4954C31.6198 18.4363 31.5637 18.3802 31.5046 18.3271C31.2365 18.0859 30.8655 17.9269 30.1769 17.8403C29.4695 17.7514 28.5379 17.75 27.2021 17.75H26.8284C26.7912 17.75 26.7545 17.75 26.7182 17.75C25.6702 17.7502 24.9944 17.7504 24.3548 17.568C24.0041 17.4681 23.6661 17.3281 23.3475 17.1508C22.7663 16.8274 22.2885 16.3495 21.5476 15.6083C21.522 15.5826 21.496 15.5566 21.4697 15.5303L20.9194 14.9801C20.6361 14.6968 20.5278 14.5895 20.4173 14.4979C19.914 14.0807 19.2966 13.825 18.6457 13.7641C18.5029 13.7507 18.3504 13.75 17.9497 13.75Z" fill="#2695FB"/>
<path d="M25.4983 22.4395C25.8079 22.7146 25.8358 23.1887 25.5606 23.4983L22.8939 26.4983C22.7516 26.6584 22.5476 26.75 22.3333 26.75C22.1191 26.75 21.9151 26.6584 21.7728 26.4983L20.4395 24.9983C20.1643 24.6887 20.1921 24.2146 20.5017 23.9395C20.8113 23.6643 21.2854 23.6921 21.5606 24.0017L22.3333 24.8711L24.4395 22.5017C24.7146 22.1921 25.1887 22.1643 25.4983 22.4395Z" fill="#181A2B"/>
</svg>
