<svg width="46" height="46" viewBox="0 0 46 46" fill="none" xmlns="http://www.w3.org/2000/svg">
<path fill-rule="evenodd" clip-rule="evenodd" d="M27.3939 13.0212L27.4604 13.039C28.5598 13.3336 29.431 13.567 30.1162 13.8146C30.8172 14.0678 31.3888 14.3574 31.8597 14.7985C32.5453 15.4407 33.0252 16.2718 33.2385 17.1867C33.385 17.815 33.3501 18.4549 33.2189 19.1885C33.0906 19.9057 32.8572 20.777 32.5626 21.8764L32.0271 23.8747C31.7326 24.974 31.4991 25.8452 31.2516 26.5305C30.9984 27.2314 30.7087 27.803 30.2677 28.2739C29.6459 28.9377 28.8471 29.4087 27.9665 29.6316C27.7093 30.2213 27.3336 30.7554 26.8597 31.1993C26.3888 31.6403 25.8172 31.93 25.1162 32.1832C24.431 32.4307 23.5598 32.6641 22.4605 32.9587L22.394 32.9765C21.2946 33.2711 20.4234 33.5045 19.7061 33.6328C18.9725 33.764 18.3327 33.7989 17.7043 33.6524C16.7894 33.4391 15.9583 32.9593 15.3161 32.2736C14.8751 31.8027 14.5854 31.2311 14.3322 30.5302C14.0847 29.8449 13.8512 28.9737 13.5567 27.8743L13.0212 25.876C12.7266 24.7766 12.4932 23.9054 12.3649 23.1882C12.2338 22.4546 12.1988 21.8147 12.3453 21.1864C12.5586 20.2715 13.0385 19.4404 13.7242 18.7982C14.1951 18.3571 14.7666 18.0675 15.4676 17.8143C16.1528 17.5667 17.024 17.3333 18.1234 17.0387L18.1567 17.0298C18.4211 16.959 18.6713 16.892 18.9083 16.8294C19.2999 15.4303 19.6445 14.4413 20.3161 13.7242C20.9583 13.0385 21.7894 12.5586 22.7043 12.3453C23.3327 12.1988 23.9725 12.2338 24.7061 12.365C25.4233 12.4932 26.2945 12.7266 27.3939 13.0212ZM18.455 18.5028C17.3621 18.7957 16.5791 19.0076 15.9772 19.2251C15.3678 19.4452 15.01 19.6491 14.7496 19.893C14.2804 20.3324 13.9521 20.901 13.8061 21.527C13.7251 21.8745 13.7275 22.2863 13.8415 22.9242C13.9572 23.5712 14.1736 24.381 14.479 25.521L14.9967 27.4529C15.3021 28.5929 15.5197 29.4023 15.743 30.0205C15.9631 30.63 16.167 30.9878 16.4109 31.2482C16.8503 31.7173 17.419 32.0456 18.045 32.1916C18.3924 32.2726 18.8042 32.2703 19.4421 32.1562C20.0892 32.0405 20.8989 31.8242 22.0389 31.5187C23.1789 31.2133 23.9884 30.9957 24.6066 30.7724C25.216 30.5522 25.5739 30.3484 25.8343 30.1045C25.9719 29.9756 26.0973 29.8357 26.2096 29.6865C26.0306 29.6613 25.8463 29.629 25.6557 29.5911C24.9839 29.4575 24.1769 29.2413 23.1808 28.9744L23.1234 28.959C22.024 28.6644 21.1528 28.431 20.4676 28.1835C19.7666 27.9303 19.195 27.6406 18.7242 27.1996C18.0385 26.5574 17.5586 25.7262 17.3453 24.8113C17.1988 24.183 17.2338 23.5432 17.3649 22.8095C17.4932 22.0923 17.7266 21.2211 18.0212 20.1218L18.455 18.5028ZM24.4421 13.8415C23.8042 13.7275 23.3924 13.7251 23.045 13.8061C22.419 13.9521 21.8503 14.2804 21.4109 14.7496C20.9748 15.2152 20.7064 15.9345 20.2397 17.6432C20.1638 17.9209 20.0836 18.2202 19.9967 18.5449L19.479 20.4767C19.1736 21.6167 18.9572 22.4265 18.8415 23.0736C18.7275 23.7114 18.7251 24.1233 18.8061 24.4707C18.9521 25.0967 19.2804 25.6654 19.7496 26.1048C20.01 26.3487 20.3678 26.5525 20.9772 26.7727C21.5954 26.996 22.4049 27.2136 23.5449 27.519C24.5703 27.7938 25.3303 27.997 25.9482 28.1199C26.5635 28.2422 26.981 28.2723 27.3232 28.2301C27.3976 28.2209 27.4691 28.2082 27.5389 28.1919C28.1649 28.0459 28.7335 27.7176 29.1729 27.2485C29.4168 26.9881 29.6207 26.6303 29.8408 26.0208C30.0642 25.4026 30.2817 24.5932 30.5872 23.4532L31.1048 21.5213C31.4103 20.3813 31.6266 19.5715 31.7423 18.9245C31.8564 18.2866 31.8587 17.8748 31.7777 17.5273C31.6317 16.9013 31.3034 16.3327 30.8343 15.8933C30.5739 15.6494 30.216 15.4455 29.6066 15.2254C28.9884 15.002 28.1789 14.7845 27.0389 14.479C25.8989 14.1736 25.0892 13.9572 24.4421 13.8415Z" fill="#2695FB"/>
<path d="M22.0526 20.8061C22.1598 20.406 22.5711 20.1685 22.9712 20.2757L27.8008 21.5698C28.2009 21.677 28.4383 22.0883 28.3311 22.4884C28.2239 22.8885 27.8127 23.1259 27.4126 23.0187L22.5829 21.7246C22.1828 21.6174 21.9454 21.2062 22.0526 20.8061Z" fill="#181A2B"/>
<path d="M21.2757 23.7038C21.3829 23.3037 21.7942 23.0662 22.1943 23.1734L25.0921 23.9499C25.4922 24.0571 25.7296 24.4684 25.6224 24.8685C25.5152 25.2686 25.1039 25.506 24.7038 25.3988L21.8061 24.6223C21.406 24.5151 21.1685 24.1039 21.2757 23.7038Z" fill="#181A2B"/>
</svg>
