<svg width="46" height="46" viewBox="0 0 46 46" fill="none" xmlns="http://www.w3.org/2000/svg">
<g clip-path="url(#clip0_220_806)">
<path d="M24 35H22.431C22.2748 35 22.1207 34.9635 21.9811 34.8932C21.8416 34.823 21.7204 34.721 21.6274 34.5955C21.5343 34.47 21.472 34.3244 21.4454 34.1705C21.4187 34.0165 21.4285 33.8585 21.474 33.709C21.7603 32.8311 21.937 31.9212 22 31C22 30.4696 21.7893 29.9609 21.4142 29.5858C21.0391 29.2107 20.5304 29 20 29C19.4696 29 18.9609 29.2107 18.5858 29.5858C18.2107 29.9609 18 30.4696 18 31C18.063 31.9212 18.2397 32.8311 18.526 33.709C18.5715 33.8585 18.5813 34.0165 18.5546 34.1705C18.528 34.3244 18.4657 34.47 18.3726 34.5955C18.2796 34.721 18.1584 34.823 18.0189 34.8932C17.8793 34.9635 17.7252 35 17.569 35H16C14.6744 34.9984 13.4036 34.4711 12.4662 33.5338C11.5289 32.5964 11.0016 31.3256 11 30V22C11.0016 20.6744 11.5289 19.4036 12.4662 18.4662C13.4036 17.5289 14.6744 17.0016 16 17H16.272C16.1136 16.3443 16.0225 15.6742 16 15C16 13.9391 16.4214 12.9217 17.1716 12.1716C17.9217 11.4214 18.9391 11 20 11C21.0609 11 22.0783 11.4214 22.8284 12.1716C23.5786 12.9217 24 13.9391 24 15C23.9775 15.6742 23.8864 16.3443 23.728 17H24C25.2872 17.0001 26.5249 17.4961 27.4561 18.385C28.3872 19.2738 28.9401 20.4872 29 21.773C29.6558 21.6148 30.3258 21.5234 31 21.5C32.0609 21.5 33.0783 21.9214 33.8284 22.6716C34.5786 23.4217 35 24.4391 35 25.5C35 26.5609 34.5786 27.5783 33.8284 28.3284C33.0783 29.0786 32.0609 29.5 31 29.5C30.3259 29.4769 29.6558 29.3858 29 29.228V30C28.9984 31.3256 28.4711 32.5964 27.5338 33.5338C26.5964 34.4711 25.3256 34.9984 24 35ZM23.728 33H24C24.7956 33 25.5587 32.6839 26.1213 32.1213C26.6839 31.5587 27 30.7956 27 30V27.931C27 27.7748 27.0365 27.6207 27.1068 27.4811C27.177 27.3416 27.279 27.2204 27.4045 27.1274C27.53 27.0343 27.6756 26.972 27.8295 26.9454C27.9835 26.9187 28.1415 26.9285 28.291 26.974C29.1689 27.2601 30.0788 27.4368 31 27.5C31.5304 27.5 32.0391 27.2893 32.4142 26.9142C32.7893 26.5391 33 26.0304 33 25.5C33 24.9696 32.7893 24.4609 32.4142 24.0858C32.0391 23.7107 31.5304 23.5 31 23.5C30.0788 23.5632 29.1689 23.7399 28.291 24.026C28.1415 24.0715 27.9835 24.0813 27.8295 24.0546C27.6756 24.028 27.53 23.9657 27.4045 23.8726C27.279 23.7796 27.177 23.6584 27.1068 23.5189C27.0365 23.3793 27 23.2252 27 23.069V22C27 21.2044 26.6839 20.4413 26.1213 19.8787C25.5587 19.3161 24.7956 19 24 19H22.431C22.2748 19 22.1207 18.9635 21.9811 18.8932C21.8416 18.823 21.7204 18.721 21.6274 18.5955C21.5343 18.47 21.472 18.3244 21.4454 18.1705C21.4187 18.0165 21.4285 17.8585 21.474 17.709C21.7603 16.8311 21.937 15.9212 22 15C22 14.4696 21.7893 13.9609 21.4142 13.5858C21.0391 13.2107 20.5304 13 20 13C19.4696 13 18.9609 13.2107 18.5858 13.5858C18.2107 13.9609 18 14.4696 18 15C18.063 15.9212 18.2397 16.8311 18.526 17.709C18.5715 17.8585 18.5813 18.0165 18.5546 18.1705C18.528 18.3244 18.4657 18.47 18.3726 18.5955C18.2796 18.721 18.1584 18.823 18.0189 18.8932C17.8793 18.9635 17.7252 19 17.569 19H16C15.2044 19 14.4413 19.3161 13.8787 19.8787C13.3161 20.4413 13 21.2044 13 22V30C13 30.7956 13.3161 31.5587 13.8787 32.1213C14.4413 32.6839 15.2044 33 16 33H16.272C16.1136 32.3443 16.0225 31.6742 16 31C16 29.9391 16.4214 28.9217 17.1716 28.1716C17.9217 27.4214 18.9391 27 20 27C21.0609 27 22.0783 27.4214 22.8284 28.1716C23.5786 28.9217 24 29.9391 24 31C23.9775 31.6742 23.8864 32.3443 23.728 33Z" fill="#2695FB"/>
</g>
<defs>
<clipPath id="clip0_220_806">
<rect width="24" height="24" fill="white" transform="translate(11 11)"/>
</clipPath>
</defs>
</svg>
