<svg width="46" height="46" viewBox="0 0 46 46" fill="none" xmlns="http://www.w3.org/2000/svg">
<path d="M32.25 23C32.25 28.1086 28.1086 32.25 23 32.25C17.8914 32.25 13.75 28.1086 13.75 23C13.75 17.8914 17.8914 13.75 23 13.75C23.4142 13.75 23.75 13.4142 23.75 13C23.75 12.5858 23.4142 12.25 23 12.25C17.0629 12.25 12.25 17.0629 12.25 23C12.25 28.9371 17.0629 33.75 23 33.75C28.9371 33.75 33.75 28.9371 33.75 23C33.75 22.5858 33.4142 22.25 33 22.25C32.5858 22.25 32.25 22.5858 32.25 23Z" fill="#2695FB"/>
<path d="M23.4697 21.4697C23.1768 21.7626 23.1768 22.2374 23.4697 22.5303C23.7626 22.8232 24.2374 22.8232 24.5303 22.5303L32.25 14.8107V18.3438C32.25 18.758 32.5858 19.0938 33 19.0938C33.4142 19.0938 33.75 18.758 33.75 18.3438V13C33.75 12.5858 33.4142 12.25 33 12.25H27.6562C27.242 12.25 26.9062 12.5858 26.9062 13C26.9062 13.4142 27.242 13.75 27.6562 13.75H31.1893L23.4697 21.4697Z" fill="#181A2B"/>
</svg>
