<svg width="46" height="46" viewBox="0 0 46 46" fill="none" xmlns="http://www.w3.org/2000/svg">
<rect width="46" height="46" rx="23" fill="#2695FB"/>
<path d="M15 17V29" stroke="white" stroke-width="1.5" stroke-linecap="round"/>
<path d="M23 17V29" stroke="white" stroke-width="1.5" stroke-linecap="round"/>
<path d="M31 17V19C31 20.8856 31 21.8284 30.4142 22.4142C29.8284 23 28.8856 23 27 23H15" stroke="white" stroke-width="1.5" stroke-linecap="round"/>
<path d="M17 15C17 16.1046 16.1046 17 15 17C13.8954 17 13 16.1046 13 15C13 13.8954 13.8954 13 15 13C16.1046 13 17 13.8954 17 15Z" stroke="white" stroke-width="1.5"/>
<path d="M25 15C25 16.1046 24.1046 17 23 17C21.8954 17 21 16.1046 21 15C21 13.8954 21.8954 13 23 13C24.1046 13 25 13.8954 25 15Z" stroke="white" stroke-width="1.5"/>
<path d="M33 15C33 16.1046 32.1046 17 31 17C29.8954 17 29 16.1046 29 15C29 13.8954 29.8954 13 31 13C32.1046 13 33 13.8954 33 15Z" stroke="white" stroke-width="1.5"/>
<path d="M17 31C17 32.1046 16.1046 33 15 33C13.8954 33 13 32.1046 13 31C13 29.8954 13.8954 29 15 29C16.1046 29 17 29.8954 17 31Z" stroke="white" stroke-width="1.5"/>
<path d="M25 31C25 32.1046 24.1046 33 23 33C21.8954 33 21 32.1046 21 31C21 29.8954 21.8954 29 23 29C24.1046 29 25 29.8954 25 31Z" stroke="white" stroke-width="1.5"/>
</svg>
