<svg width="46" height="46" viewBox="0 0 46 46" fill="none" xmlns="http://www.w3.org/2000/svg">
<path d="M27.415 28.9741C27.2065 29.6126 26.8399 30.1902 26.347 30.6519C25.6157 31.3368 24.4881 31.6389 22.2331 32.2432C19.978 32.8474 18.8504 33.1495 17.8747 32.922C17.1042 32.7424 16.4043 32.3383 15.8635 31.7609C15.1786 31.0296 14.8765 29.9021 14.2722 27.647L13.7546 25.7151C13.1503 23.46 12.8482 22.3325 13.0757 21.3567C13.2554 20.5863 13.6595 19.8864 14.2369 19.3456C14.9682 18.6606 16.0957 18.3585 18.3508 17.7543C18.7774 17.64 19.1637 17.5365 19.5162 17.4453" stroke="#181A2B" stroke-width="1.5"/>
<path d="M31.3116 23.6473L31.8293 21.7154C32.4335 19.4603 32.7356 18.3328 32.5081 17.357C32.3285 16.5866 31.9244 15.8867 31.347 15.3459C30.6157 14.661 29.4881 14.3588 27.2331 13.7546C24.978 13.1503 23.8504 12.8482 22.8747 13.0757C22.1042 13.2554 21.4043 13.6595 20.8635 14.2369C20.2771 14.863 19.9713 15.7796 19.5162 17.4456C19.4398 17.7254 19.3592 18.0263 19.2723 18.3506L19.2722 18.3508L18.7546 20.2826C18.1503 22.5377 17.8482 23.6652 18.0757 24.641C18.2554 25.4115 18.6595 26.1114 19.2369 26.6522C19.9682 27.3371 21.0957 27.6392 23.3508 28.2435L23.3508 28.2435C25.3834 28.7881 26.4999 29.0873 27.415 28.9744C27.5152 28.9621 27.6129 28.9448 27.7092 28.9223C28.4796 28.7427 29.1795 28.3386 29.7203 27.7612C30.4052 27.0299 30.7074 25.9024 31.3116 23.6473Z" stroke="#2695FB" stroke-width="1.5"/>
</svg>
