<svg width="46" height="46" viewBox="0 0 46 46" fill="none" xmlns="http://www.w3.org/2000/svg">
<path fill-rule="evenodd" clip-rule="evenodd" d="M29.1437 14.6308C27.9737 14.839 26.3964 15.3626 24.1827 16.1005L19.1714 17.7709C17.3914 18.3643 16.1021 18.7947 15.1915 19.182C14.2394 19.5869 13.9007 19.8692 13.7907 20.0584C13.4519 20.6412 13.4519 21.361 13.7907 21.9437C13.9007 22.1329 14.2394 22.4152 15.1915 22.8201C16.1021 23.2075 17.3914 23.6379 19.1714 24.2312C19.1995 24.2406 19.2273 24.2498 19.2547 24.2589C19.7409 24.4206 20.1188 24.5464 20.4439 24.764C20.7572 24.9737 21.0263 25.2428 21.236 25.5561C21.4536 25.8812 21.5794 26.2592 21.7411 26.7453C21.7502 26.7727 21.7594 26.8005 21.7688 26.8286C22.3621 28.6086 22.7925 29.8979 23.1799 30.8085C23.5848 31.7606 23.867 32.0993 24.0563 32.2093C24.639 32.5481 25.3588 32.5481 25.9416 32.2093C26.1308 32.0993 26.4131 31.7606 26.818 30.8085C27.2053 29.8979 27.6357 28.6086 28.2291 26.8286L29.8995 21.8173C30.6374 19.6036 31.161 18.0263 31.3692 16.8563C31.5783 15.6807 31.4185 15.1814 31.1185 14.8815C30.8186 14.5815 30.3193 14.4217 29.1437 14.6308ZM28.8746 13.118C30.1768 12.8863 31.3496 12.9394 32.2051 13.7949C33.0606 14.6504 33.1137 15.8232 32.882 17.1254C32.6518 18.4197 32.0903 20.1041 31.3794 22.2367L29.6745 27.3515C29.096 29.0869 28.6465 30.4353 28.232 31.41C27.8322 32.35 27.3882 33.1457 26.7139 33.5377C25.6537 34.1541 24.3442 34.1541 23.284 33.5377C22.6096 33.1457 22.1657 32.35 21.7658 31.41C21.3513 30.4354 20.9018 29.0869 20.3234 27.3515L20.311 27.3145C20.1084 26.7065 20.0466 26.5416 19.9591 26.4109C19.8611 26.2646 19.7354 26.1389 19.5891 26.0409C19.4584 25.9534 19.2935 25.8916 18.6855 25.689L18.6485 25.6766C16.9131 25.0982 15.5646 24.6487 14.59 24.2342C13.65 23.8343 12.8543 23.3904 12.4623 22.716C11.8459 21.6558 11.8459 20.3463 12.4623 19.2861C12.8543 18.6118 13.65 18.1678 14.59 17.768C15.5646 17.3535 16.9131 16.904 18.6485 16.3255L23.7633 14.6206C25.8959 13.9097 27.5803 13.3482 28.8746 13.118Z" fill="#2695FB"/>
<path d="M28.6798 17.3253C28.9782 17.627 28.9755 18.1135 28.6738 18.4119L24.5761 22.4643C24.2744 22.7627 23.788 22.76 23.4896 22.4583C23.1912 22.1566 23.1939 21.6702 23.4956 21.3718L27.5933 17.3193C27.895 17.0209 28.3814 17.0236 28.6798 17.3253Z" fill="#181A2B"/>
</svg>
