<svg width="46" height="46" viewBox="0 0 46 46" fill="none" xmlns="http://www.w3.org/2000/svg">
<path fill-rule="evenodd" clip-rule="evenodd" d="M23 13C22.3496 13 21.7556 13.1801 21.1064 13.4841C20.4782 13.7782 19.7511 14.2121 18.8411 14.7552L18.146 15.1701C17.2357 15.7133 16.5087 16.1472 15.9484 16.5623C15.3691 16.9915 14.9247 17.4308 14.6031 18.0066C14.282 18.5815 14.137 19.1962 14.0674 19.9256C14 20.6329 14 21.4991 14 22.587V23.413C14 24.5009 14 25.3671 14.0674 26.0744C14.137 26.8038 14.282 27.4185 14.6031 27.9934C14.9247 28.5692 15.3691 29.0085 15.9484 29.4377C16.5087 29.8528 17.2357 30.2867 18.146 30.8299L18.8412 31.2448C19.7511 31.7879 20.4782 32.2218 21.1064 32.5159C21.7556 32.8199 22.3496 33 23 33C23.6504 33 24.2444 32.8199 24.8936 32.5159C25.5218 32.2218 26.2489 31.7879 27.1588 31.2448L27.854 30.8299C28.7643 30.2867 29.4913 29.8528 30.0516 29.4377C30.6309 29.0085 31.0753 28.5692 31.3969 27.9934C31.718 27.4185 31.863 26.8038 31.9326 26.0744C32 25.3671 32 24.5009 32 23.4131V22.587C32 21.4991 32 20.6329 31.9326 19.9256C31.863 19.1962 31.718 18.5815 31.3969 18.0066C31.0753 17.4308 30.6309 16.9915 30.0516 16.5623C29.4913 16.1472 28.7643 15.7133 27.854 15.1701L27.1588 14.7552C26.2489 14.2121 25.5218 13.7782 24.8936 13.4841C24.2444 13.1801 23.6504 13 23 13ZM19.5156 15.9744C20.4637 15.4085 21.1317 15.0108 21.6898 14.7495C22.234 14.4947 22.6222 14.3953 23 14.3953C23.3778 14.3953 23.766 14.4947 24.3102 14.7495C24.8683 15.0108 25.5363 15.4085 26.4844 15.9744L27.1178 16.3524C28.0658 16.9181 28.7332 17.3173 29.2315 17.6865C29.717 18.0462 29.9978 18.3465 30.1903 18.6911C30.3833 19.0365 30.4953 19.4408 30.5543 20.0591C30.6146 20.6919 30.6154 21.4912 30.6154 22.622V23.378C30.6154 24.5088 30.6146 25.3081 30.5543 25.9409C30.4953 26.5592 30.3833 26.9635 30.1903 27.3089C29.9978 27.6535 29.717 27.9538 29.2315 28.3135C28.7332 28.6827 28.0658 29.0819 27.1178 29.6476L26.4844 30.0256C25.5363 30.5915 24.8683 30.9892 24.3102 31.2505C23.766 31.5053 23.3778 31.6047 23 31.6047C22.6222 31.6047 22.234 31.5053 21.6898 31.2505C21.1317 30.9892 20.4637 30.5915 19.5156 30.0256L18.8822 29.6476C17.9342 29.0819 17.2668 28.6827 16.7685 28.3135C16.283 27.9538 16.0022 27.6535 15.8097 27.3089C15.6167 26.9635 15.5047 26.5592 15.4457 25.9409C15.3854 25.3081 15.3846 24.5088 15.3846 23.378V22.622C15.3846 21.4912 15.3854 20.6919 15.4457 20.0591C15.5047 19.4408 15.6167 19.0365 15.8097 18.6911C16.0022 18.3465 16.283 18.0462 16.7685 17.6865C17.2668 17.3173 17.9342 16.9181 18.8822 16.3524L19.5156 15.9744Z" fill="#2695FB"/>
<path d="M19.5156 30.0256C20.4637 30.5915 21.1317 30.9892 21.6898 31.2505C22.234 31.5053 22.6222 31.6047 23 31.6047C23.3778 31.6047 23.766 31.5053 24.3102 31.2505C24.8683 30.9892 25.5363 30.5915 26.4844 30.0256L27.1178 29.6476C28.0658 29.0819 28.7332 28.6827 29.2315 28.3135C29.717 27.9538 29.9978 27.6535 30.1903 27.3089C30.3833 26.9635 30.4953 26.5592 30.5543 25.9409C30.6146 25.3081 30.6154 24.5088 30.6154 23.378V22.622C30.6154 21.4912 30.6146 20.6919 30.5543 20.0591C30.4953 19.4408 30.3833 19.0365 30.1903 18.6911C29.9978 18.3465 29.717 18.0462 29.2315 17.6865C28.7332 17.3173 28.0658 16.9181 27.1178 16.3524L26.4844 15.9744C25.5363 15.4085 24.8683 15.0108 24.3102 14.7495C23.766 14.4947 23.3778 14.3953 23 14.3953C22.6222 14.3953 22.234 14.4947 21.6898 14.7495C21.1317 15.0108 20.4637 15.4085 19.5156 15.9744L18.8822 16.3524C17.9342 16.9181 17.2668 17.3173 16.7685 17.6865C16.283 18.0462 16.0022 18.3465 15.8097 18.6911C15.6167 19.0365 15.5047 19.4408 15.4457 20.0591C15.3854 20.6919 15.3846 21.4912 15.3846 22.622V23.378C15.3846 24.5088 15.3854 25.3081 15.4457 25.9409C15.5047 26.5592 15.6167 26.9635 15.8097 27.3089C16.0022 27.6535 16.283 27.9538 16.7685 28.3135C17.2668 28.6827 17.9342 29.0819 18.8822 29.6476L19.5156 30.0256ZM19.5156 30.0256L19.1628 30.6259M21.1064 13.4841C21.7556 13.1801 22.3496 13 23 13C23.6504 13 24.2444 13.1801 24.8936 13.4841C25.5218 13.7782 26.2489 14.2121 27.1588 14.7552L27.854 15.1701C28.7643 15.7133 29.4913 16.1472 30.0516 16.5623C30.6309 16.9915 31.0753 17.4308 31.3969 18.0066C31.718 18.5815 31.863 19.1962 31.9326 19.9256C32 20.6329 32 21.4991 32 22.587V23.4131C32 24.5009 32 25.3671 31.9326 26.0744C31.863 26.8038 31.718 27.4185 31.3969 27.9934C31.0753 28.5692 30.6309 29.0085 30.0516 29.4377C29.4913 29.8528 28.7643 30.2867 27.854 30.8299L27.1588 31.2448C26.2489 31.7879 25.5218 32.2218 24.8936 32.5159C24.2444 32.8199 23.6504 33 23 33C22.3496 33 21.7556 32.8199 21.1064 32.5159C20.4782 32.2218 19.7511 31.7879 18.8412 31.2448L18.146 30.8299C17.2357 30.2867 16.5087 29.8528 15.9484 29.4377C15.3691 29.0085 14.9247 28.5692 14.6031 27.9934C14.282 27.4185 14.137 26.8038 14.0674 26.0744C14 25.3671 14 24.5009 14 23.413V22.587C14 21.4991 14 20.6329 14.0674 19.9256C14.137 19.1962 14.282 18.5815 14.6031 18.0066C14.9247 17.4308 15.3691 16.9915 15.9484 16.5623C16.5087 16.1472 17.2357 15.7133 18.146 15.1701L18.8411 14.7552C19.7511 14.2121 20.4782 13.7782 21.1064 13.4841Z" stroke="#2695FB" stroke-width="0.2"/>
<path fill-rule="evenodd" clip-rule="evenodd" d="M22.9629 19.667C21.1518 19.667 19.6836 21.1544 19.6836 22.9893C19.6836 24.8241 21.1518 26.3115 22.9629 26.3115C24.7741 26.3115 26.2423 24.8241 26.2423 22.9893C26.2423 21.1544 24.7741 19.667 22.9629 19.667ZM20.9953 22.9893C20.9953 21.8884 21.8763 20.9959 22.9629 20.9959C24.0496 20.9959 24.9306 21.8884 24.9306 22.9893C24.9306 24.0902 24.0496 24.9826 22.9629 24.9826C21.8763 24.9826 20.9953 24.0902 20.9953 22.9893Z" fill="#181A2B" stroke="#181A2B" stroke-width="0.2"/>
</svg>
