<svg width="46" height="46" viewBox="0 0 46 46" fill="none" xmlns="http://www.w3.org/2000/svg">
<path fill-rule="evenodd" clip-rule="evenodd" d="M23 12.25C22.3953 12.25 21.8384 12.4003 21.2288 12.6524C20.6401 12.8959 19.9563 13.2547 19.1049 13.7015L17.0374 14.7865C15.9924 15.3349 15.1562 15.7737 14.5105 16.2049C13.8415 16.6516 13.3263 17.122 12.9511 17.7592C12.5772 18.3942 12.409 19.0818 12.3283 19.9007C12.25 20.6956 12.25 21.6731 12.25 22.9026V23.0974C12.25 24.3268 12.25 25.3044 12.3283 26.0993C12.409 26.9182 12.5772 27.6058 12.9511 28.2408C13.3263 28.878 13.8415 29.3484 14.5105 29.7951C15.1561 30.2263 15.9923 30.6651 17.0372 31.2134L19.1049 32.2985C19.9563 32.7453 20.6401 33.1041 21.2288 33.3476C21.8384 33.5997 22.3953 33.75 23 33.75C23.6047 33.75 24.1616 33.5997 24.7712 33.3476C25.3599 33.1041 26.0437 32.7453 26.8951 32.2985L28.9626 31.2135C30.0076 30.6651 30.8438 30.2263 31.4895 29.7951C32.1585 29.3484 32.6737 28.878 33.0489 28.2408C33.4228 27.6058 33.591 26.9182 33.6717 26.0993C33.75 25.3044 33.75 24.3269 33.75 23.0975V22.9025C33.75 21.6731 33.75 20.6956 33.6717 19.9007C33.591 19.0818 33.4228 18.3942 33.0489 17.7592C32.6737 17.122 32.1585 16.6516 31.4895 16.2049C30.8438 15.7737 30.0076 15.3349 28.9626 14.7865L26.8951 13.7015C26.0437 13.2547 25.3599 12.8959 24.7712 12.6524C24.1616 12.4003 23.6047 12.25 23 12.25ZM19.7708 15.0461C20.6605 14.5792 21.284 14.2528 21.802 14.0386C22.3062 13.83 22.6605 13.75 23 13.75C23.3395 13.75 23.6938 13.83 24.198 14.0386C24.716 14.2528 25.3395 14.5792 26.2292 15.0461L28.2292 16.0956C29.3189 16.6675 30.0845 17.0703 30.6565 17.4523C30.9387 17.6408 31.1604 17.8158 31.3395 17.9917L23 22.1615L14.6605 17.9917C14.8396 17.8158 15.0613 17.6408 15.3435 17.4523C15.9155 17.0703 16.6811 16.6675 17.7708 16.0956L19.7708 15.0461ZM13.9377 19.3074C13.8872 19.5212 13.849 19.7641 13.8211 20.0478C13.7508 20.7606 13.75 21.6644 13.75 22.9415V23.0585C13.75 24.3356 13.7508 25.2394 13.8211 25.9522C13.8897 26.6494 14.0202 27.1002 14.2437 27.4797C14.4659 27.857 14.7873 28.1762 15.3435 28.5477C15.9155 28.9297 16.6811 29.3325 17.7708 29.9044L19.7708 30.9539C20.6605 31.4208 21.284 31.7472 21.802 31.9614C21.9656 32.0291 22.1134 32.0832 22.25 32.1255V23.4635L13.9377 19.3074ZM23.75 32.1255C23.8866 32.0832 24.0344 32.0291 24.198 31.9614C24.716 31.7472 25.3395 31.4208 26.2292 30.9539L28.2292 29.9044C29.3189 29.3325 30.0845 28.9297 30.6565 28.5477C31.2127 28.1762 31.5341 27.857 31.7563 27.4797C31.9798 27.1002 32.1103 26.6494 32.1789 25.9522C32.2492 25.2394 32.25 24.3356 32.25 23.0585V22.9415C32.25 21.6644 32.2492 20.7606 32.1789 20.0478C32.151 19.7641 32.1128 19.5212 32.0623 19.3074L23.75 23.4635V32.1255Z" fill="#2695FB"/>
</svg>
