<svg width="58" height="58" viewBox="0 0 58 58" fill="none" xmlns="http://www.w3.org/2000/svg">
<g filter="url(#filter0_d_1_7109)">
<rect x="10" y="6" width="38" height="38" rx="19" fill="white"/>
</g>
<rect x="19.5" y="15.5" width="3" height="3" rx="0.5" stroke="#181A2B"/>
<rect x="19.5" y="23.5" width="3" height="3" rx="0.5" stroke="#2695FB"/>
<rect x="19.5" y="31.5" width="3" height="3" rx="0.5" stroke="#2695FB"/>
<path d="M27.5 16C27.5 15.7239 27.7239 15.5 28 15.5H30C30.2761 15.5 30.5 15.7239 30.5 16V18C30.5 18.2761 30.2761 18.5 30 18.5H28C27.7239 18.5 27.5 18.2761 27.5 18V16Z" stroke="#2695FB"/>
<rect x="27.5" y="23.5" width="3" height="3" rx="0.5" stroke="#181A2B"/>
<rect x="27.5" y="31.5" width="3" height="3" rx="0.5" stroke="#2695FB"/>
<rect x="35.5001" y="15.5" width="3" height="3" rx="0.5" stroke="#2695FB"/>
<rect x="35.5001" y="23.5" width="3" height="3" rx="0.5" stroke="#2695FB"/>
<rect x="35.5001" y="31.5" width="3" height="3" rx="0.5" stroke="#181A2B"/>
<defs>
<filter id="filter0_d_1_7109" x="0" y="0" width="58" height="58" filterUnits="userSpaceOnUse" color-interpolation-filters="sRGB">
<feFlood flood-opacity="0" result="BackgroundImageFix"/>
<feColorMatrix in="SourceAlpha" type="matrix" values="0 0 0 0 0 0 0 0 0 0 0 0 0 0 0 0 0 0 127 0" result="hardAlpha"/>
<feOffset dy="4"/>
<feGaussianBlur stdDeviation="5"/>
<feComposite in2="hardAlpha" operator="out"/>
<feColorMatrix type="matrix" values="0 0 0 0 0.14902 0 0 0 0 0.584314 0 0 0 0 0.984314 0 0 0 0.1 0"/>
<feBlend mode="normal" in2="BackgroundImageFix" result="effect1_dropShadow_1_7109"/>
<feBlend mode="normal" in="SourceGraphic" in2="effect1_dropShadow_1_7109" result="shape"/>
</filter>
</defs>
</svg>
