<svg width="58" height="58" viewBox="0 0 58 58" fill="none" xmlns="http://www.w3.org/2000/svg">
<g filter="url(#filter0_d_1_7124)">
<rect x="10" y="6" width="38" height="38" rx="19" fill="white"/>
<path d="M35 21C35 19.4087 34.3679 17.8826 33.2426 16.7574C32.1174 15.6321 30.5913 15 29 15C27.4087 15 25.8826 15.6321 24.7574 16.7574C23.6321 17.8826 23 19.4087 23 21C23 28 20 30 20 30H38C38 30 35 28 35 21Z" stroke="#2695FB" stroke-width="2" stroke-linecap="round" stroke-linejoin="round"/>
<path d="M30.73 34C30.5542 34.3031 30.3019 34.5547 29.9982 34.7295C29.6946 34.9044 29.3504 34.9965 29 34.9965C28.6496 34.9965 28.3054 34.9044 28.0018 34.7295C27.6982 34.5547 27.4458 34.3031 27.27 34" stroke="#8AC5FD" stroke-width="2" stroke-linecap="round" stroke-linejoin="round"/>
</g>
<circle cx="34" cy="17" r="3.5" fill="#FF6363" stroke="#F2EEFE"/>
<defs>
<filter id="filter0_d_1_7124" x="0" y="0" width="58" height="58" filterUnits="userSpaceOnUse" color-interpolation-filters="sRGB">
<feFlood flood-opacity="0" result="BackgroundImageFix"/>
<feColorMatrix in="SourceAlpha" type="matrix" values="0 0 0 0 0 0 0 0 0 0 0 0 0 0 0 0 0 0 127 0" result="hardAlpha"/>
<feOffset dy="4"/>
<feGaussianBlur stdDeviation="5"/>
<feComposite in2="hardAlpha" operator="out"/>
<feColorMatrix type="matrix" values="0 0 0 0 0.14902 0 0 0 0 0.584314 0 0 0 0 0.984314 0 0 0 0.1 0"/>
<feBlend mode="normal" in2="BackgroundImageFix" result="effect1_dropShadow_1_7124"/>
<feBlend mode="normal" in="SourceGraphic" in2="effect1_dropShadow_1_7124" result="shape"/>
</filter>
</defs>
</svg>
