<svg width="16" height="16" viewBox="0 0 16 16" fill="none" xmlns="http://www.w3.org/2000/svg">
<path d="M13.8965 11C13.7795 11.3935 13.566 11.754 13.2675 12.0525L12.0525 13.2675C11.754 13.566 11.393 13.7795 10.9995 13.8965V11.5C10.9995 11.224 11.224 11 11.4995 11H13.8965ZM14 4.5V10H11.5C10.673 10 10 10.673 10 11.5V14H4.5C3.1215 14 2 12.8785 2 11.5V4.5C2 3.1215 3.1215 2 4.5 2H11.5C12.8785 2 14 3.1215 14 4.5ZM5.5 10.75C5.5 10.336 5.164 10 4.75 10C4.336 10 4 10.336 4 10.75C4 11.164 4.336 11.5 4.75 11.5C5.164 11.5 5.5 11.164 5.5 10.75ZM5.5 8C5.5 7.586 5.164 7.25 4.75 7.25C4.336 7.25 4 7.586 4 8C4 8.414 4.336 8.75 4.75 8.75C5.164 8.75 5.5 8.414 5.5 8ZM5.5 5.25C5.5 4.836 5.164 4.5 4.75 4.5C4.336 4.5 4 4.836 4 5.25C4 5.664 4.336 6 4.75 6C5.164 6 5.5 5.664 5.5 5.25Z" fill="#1CCE66"/>
</svg>
